<svg xmlns="http://www.w3.org/2000/svg" width="99" height="24" viewBox="0 0 99 24" fill="none">
  <title>Bayse Markets</title>
  <rect width="25.655" height="22.345" fill="url(#bayse-logo-gradient)" rx="6.389"/>
  <mask id="bayse-logo-mask" width="18" height="14" x="4" y="4" maskUnits="userSpaceOnUse" style="mask-type:alpha">
    <path fill="#fff" d="M9.421 17.665a5.26 5.26 0 0 1-5.257-5.26V9.586Q4.163 7.283 5.28 5.984q1.116-1.297 3.03-1.298 1.163 0 1.89.424.728.424 1.213.923.486.498.812.922c.217.283.442.425.666.425s.45-.142.666-.425q.326-.424.813-.922.485-.498 1.212-.923.728-.424 1.89-.424c1.277 0 2.29.43 3.03 1.286q1.117 1.285 1.116 3.614v2.82a5.26 5.26 0 0 1-5.258 5.259H9.416zm9.217-8.076q0-.93-.378-1.396c-.222-.274-.576-.398-.93-.371a1.54 1.54 0 0 0-.958.444q-.473.45-.96.993-.483.547-1.077 1.006-.594.46-1.442.461-.85 0-1.442-.461a8 8 0 0 1-1.078-1.006 15 15 0 0 0-.959-.993q-.472-.45-1.054-.45c-.388 0-.666.16-.885.474q-.327.474-.327 1.299v1.818a3.44 3.44 0 0 0 3.44 3.441H15.2c1.9 0 3.44-1.54 3.44-3.44v-1.82z"/>
  </mask>
  <g mask="url(#bayse-logo-mask)">
    <path fill="#fff" d="M38.203 17.695-.487 34.31l-12.78-29.758 38.69-16.615z"/>
  </g>
  <path fill="#0166F4" d="M31.078 2.99q0-.838.527-1.27t1.487-.432q.48 0 .958.096.48.096.887.264v6.068q.6-.624 1.51-.96.91-.36 1.99-.36 1.677 0 2.996.84 1.341.84 2.133 2.303.79 1.438.79 3.31 0 1.87-.838 3.333a5.86 5.86 0 0 1-2.325 2.303q-1.486.815-3.547.815-2.015 0-3.5-.816-1.462-.815-2.277-2.35-.79-1.56-.79-3.717zm8.557 7.724q-.767-.816-1.99-.816t-1.989.816q-.767.79-.767 2.11t.767 2.135q.767.79 1.99.791 1.222 0 1.989-.791.767-.816.767-2.135 0-1.32-.767-2.11M57.344 18.892q-.264.072-.911.144-.624.072-1.462.12-.814.072-1.702.096a29 29 0 0 1-1.606.048q-3.067 0-4.65-.983-1.581-.984-1.582-3.166 0-1.991 1.39-2.974 1.391-1.008 4.507-1.008 1.461 0 2.133.096 0-1.798-2.948-1.798-.983 0-1.87.191-.862.192-1.366.528a2.7 2.7 0 0 1-.6-.767 2.16 2.16 0 0 1-.263-1.008q0-.935 1.055-1.463 1.054-.55 3.212-.551 3.284 0 4.961 1.319 1.702 1.32 1.702 3.933zm-8.078-3.67q0 1.344 2.373 1.344.6 0 1.127-.024.55-.048.719-.096V13.88a15 15 0 0 0-.959-.072 10 10 0 0 0-.935-.048q-1.27 0-1.797.383-.528.384-.528 1.08M71.726 17.261q0 3.334-1.798 5.037Q68.131 24 65.038 24a14 14 0 0 1-1.965-.144q-1.03-.12-1.87-.336-.838-.216-1.222-.408l.935-2.83q.288.144.887.288.6.168 1.318.264.72.096 1.366.096 1.559 0 2.517-.672.959-.647.959-2.086v-.648q-.407.528-1.247.864-.815.335-2.013.335-1.486 0-2.66-.551a4.7 4.7 0 0 1-1.87-1.607q-.672-1.056-.671-2.495V8.435q0-.84.527-1.27.527-.433 1.486-.433.48 0 .959.096.503.096.887.264v6.188q0 1.104.575 1.63.599.529 1.654.528 1.198 0 1.725-.647.552-.648.552-1.895v-4.46q0-.84.527-1.272.528-.432 1.486-.432.48 0 .959.096.503.096.887.264zM73.386 10.57q0-2.039 1.51-3.094 1.509-1.08 4.482-1.08 2.349 0 3.763.624 1.414.6 1.414 1.583 0 .456-.336.96a1.96 1.96 0 0 1-.79.743q-.264-.288-.983-.528a8.7 8.7 0 0 0-1.606-.407 9 9 0 0 0-1.678-.168q-1.917 0-1.917.911 0 .384.36.576.358.192 1.198.312l2.157.287q4.194.576 4.194 3.742 0 1.99-1.534 3.142-1.534 1.127-4.242 1.127-1.222 0-2.469-.216t-2.277-.575-1.606-.792l1.366-2.494q.696.503 2.014.84 1.318.335 2.708.335 1.99 0 1.99-.84 0-.382-.408-.6-.384-.215-1.318-.335l-2.157-.288q-3.835-.503-3.835-3.765M92.388 19.3q-1.917 0-3.38-.816a5.87 5.87 0 0 1-2.252-2.254q-.816-1.463-.816-3.382 0-1.895.84-3.333a6.07 6.07 0 0 1 2.348-2.279q1.487-.84 3.38-.84 1.582 0 2.828.552t1.966 1.511.719 2.183q0 1.99-1.582 2.902-1.558.91-5.058.911h-.767l-.575-.048q.144.744 1.007 1.2t2.181.455.48 0 1.102-.096q.624-.12 1.175-.288.575-.192.839-.36l1.342 2.687q-.551.36-1.462.671-.886.288-1.894.456-1.006.168-1.94.168m.096-9.93q-1.102 0-1.87.744-.743.72-.743 1.847.192.024.384.024h.383q1.965 0 2.805-.336.863-.36.863-1.031 0-.552-.504-.888-.503-.36-1.318-.36"/>
  <defs>
    <linearGradient id="bayse-logo-gradient" x1="2.575" x2="18.95" y1="-10.069" y2="19.904" gradientUnits="userSpaceOnUse">
      <stop stop-color="#00DBEE"/>
      <stop offset="1" stop-color="#1655F2"/>
    </linearGradient>
  </defs>
</svg>
